<?xml version="1.0" encoding="UTF-8"?>
<svg xmlns="http://www.w3.org/2000/svg" viewBox="0 0 512 512" role="img" aria-labelledby="title desc">
  <title id="title">DevNidhi temple logo</title>
  <desc id="desc">A saffron temple silhouette inside a warm cream circle</desc>
  <rect width="512" height="512" rx="112" fill="#FFF6EE"/>
  <circle cx="256" cy="256" r="206" fill="#D4580A"/>
  <circle cx="256" cy="256" r="176" fill="#FFF9F4"/>

  <!-- Temple flag and central shikhara -->
  <path d="M254 82v55" fill="none" stroke="#A94105" stroke-width="12" stroke-linecap="round"/>
  <path d="M260 86c35 2 48 17 67 14-12 25-38 30-67 19Z" fill="#D4580A"/>
  <path d="M256 124 194 254h124Z" fill="#D4580A"/>
  <path d="m256 153-38 87h76Z" fill="#ED8B35"/>

  <!-- Side temple roofs -->
  <path d="m156 238-50 76h102Z" fill="#D4580A"/>
  <path d="m356 238-52 76h102Z" fill="#D4580A"/>
  <path d="M144 292h224v36H144Z" fill="#D4580A"/>

  <!-- Temple body -->
  <path d="M128 322h256v82H128Z" fill="#D4580A"/>
  <path d="M104 394h304v38H104Z" fill="#A94105"/>
  <path d="M82 426h348v28H82Z" fill="#D4580A"/>

  <!-- Entrance and columns -->
  <path d="M220 404v-56c0-22 16-40 36-40s36 18 36 40v56Z" fill="#FFF9F4"/>
  <path d="M154 326h22v78h-22zm182 0h22v78h-22z" fill="#FFF9F4"/>
  <circle cx="256" cy="207" r="12" fill="#FFF9F4"/>
</svg>
